<?xml version="1.0" encoding="utf-8"?>
<!-- Generator: Adobe Illustrator 28.3.0, SVG Export Plug-In . SVG Version: 6.00 Build 0)  -->
<svg version="1.1" id="Layer_1" xmlns="http://www.w3.org/2000/svg" xmlns:xlink="http://www.w3.org/1999/xlink" x="0px" y="0px"
	 viewBox="0 0 200 41" style="enable-background:new 0 0 200 41;" xml:space="preserve">
<style type="text/css">
	.st0{fill:#E13A25;}
	.st1{fill:#081533;}
</style>
<g>
	<g>
		<path class="st0" d="M49.8,5.4l-10.6,6.1l0-8.1l-6,0l0,34.6h0.2l16.4-9.4l16.3,9.4l0.2,0V14.9L49.8,5.4z M60.4,27.9l-10.6-6.1
			l-10.6,6.1l0-9.5l10.6-6.1l10.6,6.1L60.4,27.9z"/>
	</g>
	<path class="st1" d="M91.4,12.4h-5.7v-9h-6v34.6h11.7c6.7,0,12.1-5.4,12.1-12.1v-1.4C103.5,17.8,98.1,12.4,91.4,12.4z M97.6,26.1
		c0,3.5-2.9,6.4-6.4,6.4h-5.5V17.9h5.5c3.5,0,6.4,2.9,6.4,6.4V26.1z M130,12.4v14c0,6.4-5.2,11.6-11.6,11.6h-0.8
		c-6.4,0-11.6-5.2-11.6-11.6v-14h6v14.3c0,3.2,2.6,5.7,5.7,5.7h0.6c3.2,0,5.7-2.6,5.7-5.7V12.4H130z M150.2,38.1h-6V3.4h6V38.1z
		 M139.9,38.1h-6V12.4h6V38.1z M140.3,6.3c0,1.9-1.5,3.4-3.4,3.4s-3.4-1.5-3.4-3.4s1.5-3.4,3.4-3.4S140.3,4.4,140.3,6.3z
		 M159.9,15.2v13.6c0,2,1.7,3.7,3.7,3.7h0.9v5.5h-1.2c-5.1,0-9.3-4.2-9.3-9.3V3.4h6v6.2h6.8v5.5H159.9z"/>
</g>
</svg>
